<svg xmlns="http://www.w3.org/2000/svg" viewBox="0 0 100 100"><defs><style>.a{fill:#211915;}</style></defs><title>botoes</title><path class="a" d="M91.21,91.14c-7-1.45-12.9.71-18.87,3.68-24.83,12.35-56.56.83-67.95-24.49C-9,40.51,9.75,5.78,42,.79c28.35-4.39,54.87,16.37,57.75,45a49.32,49.32,0,0,1-5.54,28.49C91.24,79.86,90.75,82.8,91.21,91.14ZM13.72,49.83l.42.15c.21,1.71.38,3.43.64,5.13,2.39,15.31,14.79,27.74,29.43,29.67,18.29,2.4,30.65-7.25,37.92-20.24,1.13-2,1.07-4-1-5.37s-3.66-.29-5.07,1.25c-2.54,2.77-4.95,5.67-7.64,8.29C67.35,69.76,65.7,70.23,64.3,71c.56-1.46.77-3.21,1.73-4.33C71.69,60,77.55,53.52,83.3,47c1.88-2.15,1.79-4.42-.07-6.23a4.33,4.33,0,0,0-6.29-.07c-1.4,1.31-2.47,3-3.76,4.39-4.89,5.43-9.77,10.87-14.75,16.21-.5.54-1.66.46-2.52.66a25.18,25.18,0,0,1,.61-2.6c.11-.36.53-.6.8-.91,6.73-7.87,13.52-15.68,20.14-23.65a5.67,5.67,0,0,0,1.22-4.31,5.63,5.63,0,0,0-3.15-3.2c-2-.78-3.83.28-5.3,2C63.9,36.65,57.49,44,51.1,51.34A6.42,6.42,0,0,1,49.33,53a2,2,0,0,1-1.83-.15c-.3-.27-.21-1.26,0-1.78a8.58,8.58,0,0,1,1.4-1.58l16.32-18.9c1.54-1.79,2.33-4.06.65-5.76a9.06,9.06,0,0,0-5.48-2.23C59.26,22.51,57.79,24,56.78,25c-3.19,3.41-6.23,7-9.34,10.45-3.85,4.32-7.72,8.63-11.56,13a6,6,0,0,1-7,1.55c-2.52-.91-2.45-3.31-2.1-5.45S28,40,28.47,37.76c.56-2.5.62-4.89-2-6.43a6.24,6.24,0,0,0-7.5,1.3,8.07,8.07,0,0,0-1.84,3.1C15.91,40.4,14.84,45.13,13.72,49.83Z"/></svg>